<svg id="house" width="96" height="96" viewBox="0 0 96 96">
  <path id="roof" fill="#f0a979" d="M87.7 38.6L56.5 16.7a2.7 2.7 0 0 0-2.8-.2L29.4 28.3v-4.7a1 1 0 0 0-1-1h-6.1a1 1 0 0 0-1 1v8.6L8.7 38.3a2.7 2.7 0 0 0 1.2 5.2l1.2-.3 43.6-21.1L84.5 43a2.7 2.7 0 0 0 3.1-4.5z"/>
  <circle id="smoke-3" cx="22.1" cy="16.2" r="3.2" fill="#06386e"/>
  <circle id="smoke-2" cx="27.8" cy="11.6" r="2.6" fill="#06386e"/>
  <circle id="smoke-1" cx="23.1" cy="5" r="2.1" fill="#06386e"/>
  <path id="house-2" fill="#06386e" d="M54.7 28.1L16.1 46.8v39.8a6.5 6.5 0 0 0 6.5 6.5h5.8V71.8a11.1 11.1 0 0 1 22.3 0v21.4h22.7a6.5 6.5 0 0 0 6.5-6.5V45.8zm13.9 21.7c-.8 4.2-5.1 7.1-8.5 9.8-3.4-2.7-7.7-5.7-8.3-10s1.1-5.1 3.9-5.5h.6a5.1 5.1 0 0 1 3.7 2.4.3.3 0 0 0 .6 0 5.1 5.1 0 0 1 3.8-2.4h.6c2.6.6 4.1 2.1 3.6 5.7z" data-name="house"/>
</svg>
