<svg xmlns="http://www.w3.org/2000/svg"><symbol id="facebook" viewBox="0 0 56 56"><rect width="54" height="53.97" x="1" y="1" rx="3" ry="3"/><path fill="#fff" d="M31.5 55V35h7l1.1-7.8h-8.1v-5c0-2.3.7-3.8 4-3.8h4.3v-7a60.4 60.4 0 0 0-6.3-.3c-6.2 0-10.5 3.6-10.5 10.3v5.7h-7V35h7v20z"/></symbol><symbol id="heart" viewBox="0 0 56 56"><path fill="#010101" d="M40.4 2.7A16.5 16.5 0 0 0 28 8.4a16.5 16.5 0 0 0-12.4-5.7A15 15 0 0 0 .4 17.8C.4 28.3 28 53.3 28 53.3s27.6-25 27.6-35.5A15 15 0 0 0 40.4 2.7zM28 49.3C17.2 39.1 3.4 23.8 3.4 17.8A12.1 12.1 0 0 1 15.6 5.7a13.5 13.5 0 0 1 10.1 4.7l2.3 2.7 2.3-2.7a13.5 13.5 0 0 1 10.1-4.7 12.1 12.1 0 0 1 12.2 12.1c0 6-13.8 21.3-24.6 31.5z"/></symbol><symbol id="instagram" viewBox="0 0 56 56"><path fill="#010101" d="M28 12.2h7.8a10.7 10.7 0 0 1 3.6.7 6.4 6.4 0 0 1 3.6 3.7 10.7 10.7 0 0 1 .7 3.6c.1 2 .1 2.6.1 7.8s0 5.8-.1 7.8a10.7 10.7 0 0 1-.7 3.6 6.4 6.4 0 0 1-3.6 3.6 10.7 10.7 0 0 1-3.6.7H20.2a10.7 10.7 0 0 1-3.6-.7 6.4 6.4 0 0 1-3.6-3.6 10.7 10.7 0 0 1-.7-3.6c-.1-2-.1-2.6-.1-7.8s0-5.8.1-7.8a10.7 10.7 0 0 1 .7-3.6 6.4 6.4 0 0 1 3.6-3.6 10.7 10.7 0 0 1 3.6-.7H28m0-3.5h-8a14.2 14.2 0 0 0-4.7.9 9.9 9.9 0 0 0-5.6 5.6 14.2 14.2 0 0 0-.9 4.7c-.1 2.1-.1 2.7-.1 8s0 5.9.1 8a14.2 14.2 0 0 0 .9 4.7 9.9 9.9 0 0 0 5.6 5.6 14.2 14.2 0 0 0 4.7.9h16a14.2 14.2 0 0 0 4.7-.9 9.9 9.9 0 0 0 5.6-5.6 14.2 14.2 0 0 0 .9-4.7c.1-2.1.1-2.7.1-8s0-5.9-.1-8a14.2 14.2 0 0 0-.9-4.7 9.9 9.9 0 0 0-5.6-5.6 14.2 14.2 0 0 0-4.7-.9z"/><path fill="#010101" d="M28 18.1a9.9 9.9 0 1 0 9.9 9.9 9.9 9.9 0 0 0-9.9-9.9zm0 16.3a6.4 6.4 0 1 1 6.4-6.4 6.4 6.4 0 0 1-6.4 6.4z"/><circle cx="38.3" cy="17.7" r="2.3" fill="#010101"/></symbol><symbol id="mail" viewBox="0 0 56 56"><path d="M50 6H6a5.5 5.5 0 0 0-5.5 5.5v33A5.5 5.5 0 0 0 6 50h44a5.5 5.5 0 0 0 5.5-5.5v-33A5.5 5.5 0 0 0 50 6zm-1.1 11.7L30 29.5a3.8 3.8 0 0 1-4 0L7.1 17.7a2.3 2.3 0 0 1-1.1-2 2.3 2.3 0 0 1 3.6-2L26 24a3.8 3.8 0 0 0 4 0l16.4-10.3a2.3 2.3 0 0 1 3.6 2 2.3 2.3 0 0 1-1.1 2z"/></symbol><symbol id="money" viewBox="0 0 56 56"><path fill="#231f20" d="M36.5 14A8.9 8.9 0 0 0 30 9v16.7a36.8 36.8 0 0 1 6.2 3.3 9.1 9.1 0 0 1 4.4 8A12.3 12.3 0 0 1 30 48.9V55h-2.4v-6a12 12 0 0 1-9.5-4.3 13.6 13.6 0 0 1-2.7-4.5l2.4-1.1a14.3 14.3 0 0 0 2.2 4 9.9 9.9 0 0 0 7.6 3.5V27.4l-1.6-.8c-4-1.9-5.6-3.1-6.9-5.1a8.9 8.9 0 0 1-1.3-4.7 10 10 0 0 1 9.8-10.3V.9H30v5.6a10.6 10.6 0 0 1 8.4 5.9zm-8.9-5c-4.5.2-6.9 4-6.9 7.7s2.4 6 6.9 7.8zM30 46.4a9.6 9.6 0 0 0 7.7-9.4c0-2.2-.9-4.6-4-6.5L30 28.6z"/></symbol><symbol id="paw-outline" viewBox="0 0 56 56"><path d="M14.2 22.6c0-4.4-3.1-8-6.9-8s-6.8 3.6-6.8 8 3.1 8 6.9 8 6.8-3.6 6.8-8zm-10.8 0c0-2.7 1.8-5 3.9-5s3.9 2.3 3.9 5-1.8 5-3.9 5-3.8-2.3-3.8-5zm16.3-4.8c3.8 0 6.9-3.6 6.9-8s-3.1-8-6.9-8-6.9 3.6-6.9 8 3.2 8 6.9 8zm0-13c2.1 0 3.9 2.3 3.9 5s-1.8 5-3.9 5-3.9-2.3-3.9-5 1.8-4.9 3.9-4.9zm16.5 13c3.8 0 6.9-3.6 6.9-8s-3.1-8-6.9-8-6.9 3.6-6.9 8 3.2 8 6.9 8zm0-13c2.1 0 3.9 2.3 3.9 5s-1.8 5-3.9 5-3.9-2.3-3.9-5 1.8-4.9 3.9-4.9zm12.4 9.8c-3.8 0-6.9 3.6-6.9 8s3.1 8 6.9 8 6.9-3.6 6.9-8-3.1-8-6.9-8zm0 13c-2.1 0-3.9-2.3-3.9-5s1.8-5 3.9-5 3.9 2.3 3.9 5-1.8 5-3.9 5zm-5.9 6.9l-6.8-8a11.7 11.7 0 0 0-4.8-3.6l-.9-.2h-4.4l-.9.2a11.8 11.8 0 0 0-4.8 3.6l-6.8 8c-3.6 3.6-8 7.6-7.2 13.2a8.6 8.6 0 0 0 6.4 6.4c2 .4 8.4-1.2 15.2-1.2h.5c6.8 0 13.2 1.6 15.2 1.2a8.7 8.7 0 0 0 6.4-6.4c.9-5.6-3.5-9.6-7.1-13.2zM46.9 47a5.7 5.7 0 0 1-4 4.1h-.2l-4-.4a79.6 79.6 0 0 0-10.4-.9h-.5a78.5 78.5 0 0 0-10.4.9l-4 .4h-.3a5.6 5.6 0 0 1-4-4.1c-.4-3.4 2-6.1 5.7-9.8l.7-.7h.1l4.4-5.1 2.4-2.9a8.9 8.9 0 0 1 3.5-2.7H30a8.7 8.7 0 0 1 3.6 2.8l4.4 5 2.5 3 .7.7c3.7 3.6 6.1 6.3 5.7 9.7z"/></symbol><symbol id="paw" viewBox="0 0 56 56"><ellipse cx="7.4" cy="23.8" rx="6.9" ry="8"/><ellipse cx="19.8" cy="11" rx="6.9" ry="8"/><ellipse cx="36.2" cy="11" rx="6.9" ry="8"/><ellipse cx="48.6" cy="23.8" rx="6.9" ry="8"/><path d="M42.7 35.6l-6.8-8a11.7 11.7 0 0 0-4.8-3.6l-.9-.2h-4.4l-.9.2a11.8 11.8 0 0 0-4.8 3.6l-6.8 8c-3.6 3.6-8 7.6-7.2 13.2a8.6 8.6 0 0 0 6.4 6.4c2 .4 8.4-1.2 15.2-1.2h.5c6.8 0 13.2 1.6 15.2 1.2a8.7 8.7 0 0 0 6.4-6.4c.9-5.6-3.5-9.6-7.1-13.2z"/></symbol><symbol id="person" viewBox="0 0 56 56"><path d="M42.4 30.6a19.7 19.7 0 0 1-28.8 0C5.6 32.9.5 37.1.5 43.1v10.6h55V43.1c0-6-5.1-10.2-13.1-12.5z"/><circle cx="28" cy="17.1" r="14.8"/></symbol><symbol id="question" viewBox="0 0 56 56"><path d="M55.5 40.5v-33a3.7 3.7 0 0 0-3.7-3.7H4.2A3.7 3.7 0 0 0 .5 7.5v32.9a3.7 3.7 0 0 0 3.7 3.7h22.7l-1.4 6.4a1.4 1.4 0 0 0 1.9 1.5l16.3-7.9h8.2a3.7 3.7 0 0 0 3.6-3.6z"/></symbol><symbol id="twitter" viewBox="0 0 56 56"><path d="M21.5 42.2c13.2 0 20.4-10.9 20.4-20.4v-.9a14.6 14.6 0 0 0 3.6-3.7 14.5 14.5 0 0 1-4.1 1.1 7.2 7.2 0 0 0 3.2-4A14.3 14.3 0 0 1 40 16a7.2 7.2 0 0 0-12.5 5 7.9 7.9 0 0 0 .2 1.6 20.4 20.4 0 0 1-14.8-7.5 7.2 7.2 0 0 0 2.2 9.6 7.3 7.3 0 0 1-3.2-.9 7.2 7.2 0 0 0 5.7 7l-1.9.3h-1.3a7.2 7.2 0 0 0 6.7 5 14.4 14.4 0 0 1-8.9 3.1h-1.7a20.4 20.4 0 0 0 11 3.2" data-name="Logo — FIXED"/></symbol><symbol id="warning" viewBox="0 0 56 56"><path d="M3.4 52.1h49.2a2.9 2.9 0 0 0 2.5-4.4L30.5 5.3a2.9 2.9 0 0 0-5 0L.9 47.8a2.9 2.9 0 0 0 2.5 4.3zm24.6-8a2.7 2.7 0 0 1-2.7-2.7 2.7 2.7 0 0 1 2.7-2.7 2.7 2.7 0 0 1 2.7 2.7 2.7 2.7 0 0 1-2.7 2.7zm0-10.8a1.7 1.7 0 0 1-1.7-1.6l-1-14.3a2.7 2.7 0 0 1 2.7-2.6 2.7 2.7 0 0 1 2.7 2.7l-1 14.3a1.7 1.7 0 0 1-1.7 1.5z"/></symbol></svg>