<svg xmlns="http://www.w3.org/2000/svg"><symbol id="twitter" viewBox="0 0 56 56"><path fill="#231f20" d="M28 .5A27.5 27.5 0 1 0 55.5 28 27.5 27.5 0 0 0 28 .5zm17.3 17.9a14 14 0 0 1-2.8 3.1 1.2 1.2 0 0 0-.4.9 19.7 19.7 0 0 1-1.3 6.8 20 20 0 0 1-3.7 6.2 18.4 18.4 0 0 1-6.1 4.7 19.6 19.6 0 0 1-8.3 1.8 19.4 19.4 0 0 1-9.7-2.6.6.6 0 0 1-.3-.6.5.5 0 0 1 .5-.4h.8a13 13 0 0 0 7.3-2.3 7.1 7.1 0 0 1-5.6-4.8.4.4 0 0 1 .4-.5h1.3a7.1 7.1 0 0 1-4.1-6.5.4.4 0 0 1 .5-.3l1.6.6a7.1 7.1 0 0 1-1.1-8.6.4.4 0 0 1 .6 0 18.5 18.5 0 0 0 12.7 6.8h.2a.3.3 0 0 0 .1-.2 7.5 7.5 0 0 1 .2-2.6 6.8 6.8 0 0 1 4.6-4.9 7.5 7.5 0 0 1 2.2-.3 7.1 7.1 0 0 1 4.7 1.8l.6.2h.2a13 13 0 0 0 3.5-1.4.4.4 0 0 1 .5.4 7 7 0 0 1-1.9 3l2.3-.8a.4.4 0 0 1 .5.5z"/></symbol><symbol id="facebook" viewBox="0 0 56 56"><path fill="#231f20" d="M28 .5a27.5 27.5 0 0 0-2.3 54.9V36.2h-6.4v-8.7h6.4v-3.4c0-5.9 4.4-11.1 9.8-11.1h7.1v8.7h-7c-.8 0-1.7.9-1.7 2.3v3.5h8.7v8.7h-8.7v18.7A27.5 27.5 0 0 0 28 .5z"/></symbol><symbol id="paw" viewBox="0 0 56 56"><ellipse cx="7.4" cy="23.8" fill="#231f20" rx="6.9" ry="8"/><ellipse cx="19.8" cy="11" fill="#231f20" rx="6.9" ry="8"/><ellipse cx="36.2" cy="11" fill="#231f20" rx="6.9" ry="8"/><ellipse cx="48.6" cy="23.8" fill="#231f20" rx="6.9" ry="8"/><path fill="#231f20" d="M42.7 35.6l-6.8-8a11.7 11.7 0 0 0-4.8-3.6l-.9-.2h-4.4l-.9.2a11.8 11.8 0 0 0-4.8 3.6l-6.8 8c-3.6 3.6-8 7.6-7.2 13.2a8.6 8.6 0 0 0 6.4 6.4c2 .4 8.4-1.2 15.2-1.2h.5c6.8 0 13.2 1.6 15.2 1.2a8.7 8.7 0 0 0 6.4-6.4c.9-5.6-3.5-9.6-7.1-13.2z"/></symbol><symbol id="person" viewBox="0 0 56 56"><path fill="#231f20" d="M42.4 30.6a19.7 19.7 0 0 1-28.8 0C5.6 32.9.5 37.1.5 43.1v10.6h55V43.1c0-6-5.1-10.2-13.1-12.5z"/><circle cx="28" cy="17.1" r="14.8" fill="#231f20"/></symbol><symbol id="question" viewBox="0 0 56 56"><path fill="#231f20" d="M55.5 40.5v-33a3.7 3.7 0 0 0-3.7-3.7H4.2A3.7 3.7 0 0 0 .5 7.5v32.9a3.7 3.7 0 0 0 3.7 3.7h22.7l-1.4 6.4a1.4 1.4 0 0 0 1.9 1.5l16.3-7.9h8.2a3.7 3.7 0 0 0 3.6-3.6z"/></symbol><symbol id="mail" viewBox="0 0 56 56"><path fill="#231f20" d="M50 6H6a5.5 5.5 0 0 0-5.5 5.5v33A5.5 5.5 0 0 0 6 50h44a5.5 5.5 0 0 0 5.5-5.5v-33A5.5 5.5 0 0 0 50 6zm-1.1 11.7L30 29.5a3.8 3.8 0 0 1-4 0L7.1 17.7a2.3 2.3 0 0 1-1.1-2 2.3 2.3 0 0 1 3.6-2L26 24a3.8 3.8 0 0 0 4 0l16.4-10.3a2.3 2.3 0 0 1 3.6 2 2.3 2.3 0 0 1-1.1 2z"/></symbol></svg>