<svg id="Layer_1" data-name="Layer 1" xmlns="http://www.w3.org/2000/svg" width="64" height="64" viewBox="0 0 64 64"><title>logo-64</title><path d="M12.8,4.4C32.2,17.6,51.8,31.1,63.7,37.1V4.4Z" fill="#fff"/><polygon points="52.6 30 52.6 24.7 59.9 24.7 59.9 16 52.6 16 52.6 8.7 43.9 8.7 43.9 16 36.5 16 36.5 19.6 12.8 4.4 12.8 37.1 59.8 40.5 63.7 37.1 52.6 30" fill="#5cdb94"/><path d="M30.8,53l7.4,6.6L59.8,40.5c-3.9-2.5-8.1-3.8-12-5.1s-10.2-4.5-13.6-8.1-5.7-7.1-7.1-8.3a.9.9,0,0,0-1.4.4l-1.4,4.4a49,49,0,0,0-4.5-4.4.4.4,0,0,0-.6.4,29.3,29.3,0,0,1,.2,8.8c-8.1,6.1-7.8,9.6-7.8,9.6L.3,45.8c-.4,1.9,2.8,2.7,2.8,2.7A6.3,6.3,0,0,0,7,51.1c.4,1.1,2,1.2,2.7,1,6.4-2.4,10.2-2.3,12.5-1.7a4.6,4.6,0,0,1,3.4,4,2.7,2.7,0,0,1,0,.7l.4-1c.3-.5.7-.4,1.1.1s1.9,1.6,1.9,1.6C27.4,49.4,30.8,53,30.8,53Z" fill="#fff"/></svg>