<svg id="Layer_1" data-name="Layer 1" xmlns="http://www.w3.org/2000/svg" width="256" height="256" viewBox="0 0 256 256"><title>logo-256</title><rect x="-82.5" y="-25" width="421" height="306" fill="#fff"/><path d="M51.7,18.4c77,52.5,154.9,105.9,202.4,129.8V18.4Z" fill="#06386e"/><polygon points="209.8 120.2 209.8 99 239.1 99 239.1 64.5 209.8 64.5 209.8 35.2 175.4 35.2 175.4 64.5 146 64.5 146 78.6 51.7 18.4 51.7 148.1 238.8 161.7 254.1 148.1 209.8 120.2" fill="#5cdb94"/><path d="M123.3,211.4l29.6,26.2,85.8-75.9c-15.5-9.8-32.3-15-47.9-20.5-18.5-6.5-40.8-17.7-54.1-32.1-16.5-17.8-22.7-28.1-28.3-32.8a3.4,3.4,0,0,0-5.5,1.5L97.2,95.2C91.7,89.6,84.1,81,79.3,77.7a1.6,1.6,0,0,0-2.5,1.7c2.6,13.4,1.7,25.7.8,35.1-32.1,24.2-31.1,38.2-31.1,38.2L2,182.9c-1.6,7.6,11.3,10.9,11.3,10.9,7.4,9.2,15.1,10.1,15.1,10.1,1.4,4.4,7.9,4.9,10.6,3.8,25.3-9.6,40.7-9.3,49.7-6.8a18.1,18.1,0,0,1,13.4,15.9,10.8,10.8,0,0,1,0,2.7,30.9,30.9,0,0,1,1.8-4c1.2-2.2,2.8-1.5,4.3.5,4.7,6.1,7.5,6.3,7.5,6.3C109.8,197.2,123.3,211.4,123.3,211.4Z" fill="#06386e"/></svg>