<?xml version="1.0" encoding="utf-8"?>
<!-- Generator: Adobe Illustrator 21.1.0, SVG Export Plug-In . SVG Version: 6.00 Build 0)  -->
<svg version="1.1" id="Layer_1" xmlns="http://www.w3.org/2000/svg" xmlns:xlink="http://www.w3.org/1999/xlink" x="0px" y="0px"
	 viewBox="0 0 32 32" style="enable-background:new 0 0 32 32;" xml:space="preserve">
<style type="text/css">
	.st0{fill:#06386E;}
	.st1{fill:#5CDB94;}
	.st2{fill:#FFFFFF;}
</style>
<rect y="0" class="st0" width="32" height="32"/>
<title>logo-32</title>
<path class="st1" d="M6.4,2.2c9.7,6.6,19.5,13.3,25.4,16.3V2.2H6.4z"/>
<polygon class="st1" points="26.3,15 26.3,12.4 30,12.4 30,8 26.3,8 26.3,4.3 21.9,4.3 21.9,8 18.3,8 18.3,9.8 6.4,2.2 6.4,18.5 
	29.9,20.2 31.8,18.5 "/>
<path class="st2" d="M15.4,26.5l3.7,3.3l10.8-9.5c-1.9-1.1-3.9-2-6-2.6c-2.5-0.8-4.9-2.2-6.8-4c-2.1-2.2-2.8-3.5-3.6-4.1
	c-0.1-0.2-0.4-0.2-0.6,0c-0.1,0.1-0.1,0.1-0.1,0.2L12.1,12c-0.7-0.8-1.4-1.6-2.2-2.3c-0.1-0.1-0.2,0-0.3,0.1c0,0,0,0.1,0,0.1
	c0.3,1.5,0.3,2.9,0.1,4.4c-4,3-3.9,4.8-3.9,4.8l-5.6,3.8c-0.2,1,1.4,1.4,1.4,1.4c0.5,0.7,1.1,1.1,1.9,1.3c0.2,0.6,1,0.6,1.3,0.5
	c3.2-1.2,5.1-1.2,6.2-0.9c0.9,0.2,1.6,1,1.7,2c0,0.1,0,0.2,0,0.3L13,27c0.1-0.3,0.4-0.2,0.5,0.1s0.9,0.8,0.9,0.8
	C13.7,24.7,15.4,26.5,15.4,26.5z"/>
</svg>
