<svg id="Layer_1" data-name="Layer 1" xmlns="http://www.w3.org/2000/svg" width="16" height="16" viewBox="0 0 16 16"><title>logo-16</title><rect x="-360.2" y="-133" width="421" height="306" fill="#fff"/><path d="M3.3,1.3a141,141,0,0,0,12.4,8v-8Z" fill="#5cdb94"/><polygon points="13 7.5 13 6.2 14.8 6.2 14.8 4.1 13 4.1 13 2.3 10.9 2.3 10.9 4.1 9.1 4.1 9.1 5 3.3 1.3 3.3 9.2 14.8 10.1 15.7 9.2 13 7.5" fill="#5cdb94"/><path d="M7.7,13.1l1.8,1.6,5.3-4.7a14,14,0,0,0-2.9-1.3,8.7,8.7,0,0,1-3.3-2c-1-1.1-1.4-1.7-1.7-2a.2.2,0,0,0-.3.1L6.1,6,5,4.9a.1.1,0,0,0-.2.1,7.1,7.1,0,0,1,0,2.1C2.9,8.6,3,9.5,3,9.5L.3,11.4c-.1.5.7.7.7.7a1.5,1.5,0,0,0,.9.6c.1.3.5.3.7.2a5,5,0,0,1,3-.4,1.1,1.1,0,0,1,.8,1,.7.7,0,0,1,0,.2v-.2c.1-.1.2-.1.3,0s.5.4.5.4C6.9,12.2,7.7,13.1,7.7,13.1Z" fill="#06386e"/></svg>