<?xml version="1.0" encoding="utf-8"?>
<!-- Generator: Adobe Illustrator 21.1.0, SVG Export Plug-In . SVG Version: 6.00 Build 0)  -->
<svg version="1.1" id="Layer_1" xmlns="http://www.w3.org/2000/svg" xmlns:xlink="http://www.w3.org/1999/xlink" x="0px" y="0px"
	 viewBox="0 0 16 16" style="enable-background:new 0 0 16 16;" xml:space="preserve">
<style type="text/css">
	.st0{fill:#06386E;}
	.st1{fill:#5CDB94;}
	.st2{fill:#FFFFFF;}
</style>
<rect x="0" class="st0" width="16" height="16"/>
<title>logo-16</title>
<path class="st1" d="M3.3,1.3c4,2.9,8.1,5.6,12.4,8v-8L3.3,1.3z"/>
<polygon class="st1" points="13,7.5 13,6.2 14.8,6.2 14.8,4.1 13,4.1 13,2.3 10.9,2.3 10.9,4.1 9.1,4.1 9.1,5 3.3,1.3 3.3,9.2 
	14.8,10.1 15.7,9.2 "/>
<path class="st2" d="M7.7,13.1l1.8,1.6l5.3-4.7c-0.9-0.5-1.9-1-2.9-1.3c-1.2-0.4-2.4-1.1-3.3-2c-1-1.1-1.4-1.7-1.7-2
	c-0.1-0.1-0.2,0-0.3,0.1c0,0,0,0,0,0L6.1,6L5,4.9c0-0.1-0.1-0.1-0.2-0.1c-0.1,0-0.1,0.1,0,0.2l0,0c0.1,0.7,0.1,1.4,0,2.1
	C2.9,8.6,3,9.5,3,9.5l-2.7,1.9C0.2,11.9,1,12.1,1,12.1c0.2,0.3,0.5,0.5,0.9,0.6C2,13,2.4,13,2.6,12.9c0.9-0.4,2-0.6,3-0.4
	c0.5,0.1,0.8,0.5,0.8,1c0,0.1,0,0.1,0,0.2v-0.2c0.1-0.1,0.2-0.1,0.3,0s0.5,0.4,0.5,0.4C6.9,12.2,7.7,13.1,7.7,13.1z"/>
</svg>
