<svg id="Layer_1" data-name="Layer 1" xmlns="http://www.w3.org/2000/svg" width="32" height="32" viewBox="0 0 32 32"><title>logo-32</title><rect x="-360.2" y="-93.7" width="421" height="306" fill="#fff"/><path d="M6.4,2.2c9.7,6.6,19.5,13.3,25.4,16.3V2.2Z" fill="#5cdb94"/><polygon points="26.3 15 26.3 12.4 30 12.4 30 8 26.3 8 26.3 4.3 21.9 4.3 21.9 8 18.3 8 18.3 9.8 6.4 2.2 6.4 18.5 29.9 20.2 31.8 18.5 26.3 15" fill="#5cdb94"/><path d="M15.4,26.5l3.7,3.3,10.8-9.5a28.7,28.7,0,0,0-6-2.6,17.9,17.9,0,0,1-6.8-4c-2.1-2.2-2.8-3.5-3.6-4.1a.4.4,0,0,0-.7.2l-.7,2.2A24.5,24.5,0,0,0,9.9,9.7a.2.2,0,0,0-.3.2,14.6,14.6,0,0,1,.1,4.4c-4,3-3.9,4.8-3.9,4.8L.2,22.9c-.2,1,1.4,1.4,1.4,1.4a3.2,3.2,0,0,0,1.9,1.3c.2.6,1,.6,1.3.5,3.2-1.2,5.1-1.2,6.2-.9a2.3,2.3,0,0,1,1.7,2,1.4,1.4,0,0,1,0,.3L13,27c.1-.3.4-.2.5.1s.9.8.9.8C13.7,24.7,15.4,26.5,15.4,26.5Z" fill="#06386e"/></svg>