<?xml version="1.0" encoding="utf-8"?>
<!-- Generator: Adobe Illustrator 21.1.0, SVG Export Plug-In . SVG Version: 6.00 Build 0)  -->
<svg version="1.1" id="Layer_1" xmlns="http://www.w3.org/2000/svg" xmlns:xlink="http://www.w3.org/1999/xlink" x="0px" y="0px"
	 viewBox="0 0 256 256" style="enable-background:new 0 0 256 256;" xml:space="preserve">
<style type="text/css">
	.st0{fill:#FFFFFF;}
	.st1{fill:#5CDB94;}
</style>
<title>logo-256</title>
<path class="st0" d="M51.7,18.4c77,52.5,154.9,105.9,202.4,129.8V18.4H51.7z"/>
<polygon class="st1" points="209.8,120.2 209.8,99 239.1,99 239.1,64.5 209.8,64.5 209.8,35.2 175.4,35.2 175.4,64.5 146,64.5 
	146,78.6 51.7,18.4 51.7,148.1 238.8,161.7 254.1,148.1 "/>
<path class="st0" d="M123.3,211.4l29.6,26.2l85.8-75.9c-15.5-9.8-32.3-15-47.9-20.5c-18.5-6.5-40.8-17.7-54.1-32.1
	C120.2,91.3,114,81,108.4,76.3c-1.4-1.2-3.6-1.1-4.8,0.3c-0.3,0.4-0.6,0.8-0.7,1.2l-5.7,17.4C91.7,89.6,84.1,81,79.3,77.7
	c-0.7-0.5-1.7-0.4-2.2,0.3c-0.3,0.4-0.4,0.9-0.3,1.4c2.6,13.4,1.7,25.7,0.8,35.1c-32.1,24.2-31.1,38.2-31.1,38.2L2,182.9
	c-1.6,7.6,11.3,10.9,11.3,10.9c7.4,9.2,15.1,10.1,15.1,10.1c1.4,4.4,7.9,4.9,10.6,3.8c25.3-9.6,40.7-9.3,49.7-6.8
	c7.4,1.9,12.7,8.3,13.4,15.9c0.1,0.9,0.1,1.8,0,2.7c0.5-1.4,1.1-2.7,1.8-4c1.2-2.2,2.8-1.5,4.3,0.5c4.7,6.1,7.5,6.3,7.5,6.3
	C109.8,197.2,123.3,211.4,123.3,211.4z"/>
</svg>
