<svg width="96" height="96" viewBox="0 0 96 96">
  <g id="pug">
    <g id="face">
      <rect width="66.7" height="60.37" x="14.6" y="24.9" fill="#cbcaca" rx="6.8" ry="6.8"/>
      <rect width="36.3" height="8.09" x="29.9" y="79.6" fill="#06386e" rx="2.4" ry="2.4"/>
      <circle cx="48" cy="90.5" r="4.4" fill="#f0a979"/>
      <path fill="#06386e" d="M21.3 25a6.7 6.7 0 0 0-6.7 6.7v16L35.5 25z"/>
      <path fill="#06386e" d="M74.7 25a6.7 6.7 0 0 1 6.7 6.7v16L60.5 25z"/>
      <circle cx="31.7" cy="47.5" r="5.6" fill="#06386e"/>
      <circle cx="64.4" cy="47.5" r="5.6" fill="#06386e"/>
      <path fill="#fff" d="M35 47c-.5 1-.8-.4-1.8-.9s-2.3.1-1.8-.9A2 2 0 0 1 35 47z"/>
      <path fill="#fff" d="M67.9 47c-.5 1-.8-.4-1.8-.9s-2.3.1-1.8-.9a2 2 0 1 1 3.6 1.8z"/>
      <path fill="#06386e" d="M48.8 61.5c.6 4.3 4.8 5.3 7.2 5.5a1.5 1.5 0 0 1 1.2 1.9c-3 9.3-15.3 9.3-18.5 0A1.4 1.4 0 0 1 40 67c2.5-.2 6.6-1.1 7.2-5.5"/>
      <line x1="48" x2="48" y1="31.7" y2="48" fill="none" stroke="#06386e" stroke-linecap="round" stroke-miterlimit="10" stroke-width="1.52"/>
      <circle cx="48" cy="57.1" r="5.4" fill="#06386e"/>
      <path fill="none" stroke="#06386e" stroke-linecap="round" stroke-miterlimit="10" stroke-width="1.52" d="M54 29.7a5.9 5.9 0 1 1-11.8 0"/>
      <path fill="none" stroke="#fff" stroke-linecap="round" stroke-miterlimit="10" stroke-width="1.14" d="M51 58.2c0-1.3-1.3-2.3-3-2.3s-3 1-3 2.3"/>
      <path fill="none" stroke="#06386e" stroke-linecap="round" stroke-miterlimit="10" stroke-width="3.03" d="M69.5 62.5c0-8-9.6-14.5-21.5-14.5s-21.4 6.5-21.4 14.5"/>
      <line x1="48.1" x2="48.1" y1="55.9" y2="62.4" fill="none" stroke="#fff" stroke-linecap="round" stroke-miterlimit="10" stroke-width="1.14"/>
      <circle cx="33.5" cy="83.5" r="1.8" fill="#fff"/>
      <circle cx="62.3" cy="83.5" r="1.8" fill="#fff"/>
      <circle cx="40.7" cy="83.5" r="1.8" fill="#fff"/>
      <circle cx="47.9" cy="83.5" r="1.8" fill="#fff"/>
      <circle cx="55.1" cy="83.5" r="1.8" fill="#fff"/>
      <path fill="#ff739d" d="M51.9 68.4v5.8A3.9 3.9 0 0 1 48 78a3.9 3.9 0 0 1-3.9-3.9v-5.7"/>
    </g>
    <path id="heart-2" fill="#5cdb94" d="M16.9 7.3l-.4.2a4.1 4.1 0 0 0-1.8 3.1.3.3 0 0 1-.4.2 4.1 4.1 0 0 0-3.5-.3l-.4.2C8.6 12 8 13.6 9.7 16s6.1 3.3 9.5 3.9c1.5-3.1 3.4-6.8 2.4-10S19 6.7 16.9 7.3z"/>
    <path id="heart-1" fill="#5cdb94" d="M35.6 1.1h-.4a4.1 4.1 0 0 0-2.9 2.1.3.3 0 0 1-.4 0 4.1 4.1 0 0 0-3.1-1.8h-.4c-2.2.5-3.4 1.7-2.8 4.5s4.2 5.5 7.1 7.5c2.6-2.2 5.9-4.8 6.3-8.1s-1.2-3.9-3.4-4.2z"/>
  </g>
</svg>
